<mxfile host="app.diagrams.net" modified="2023-11-15T16:54:01.310Z" agent="Mozilla/5.0 (Windows NT 10.0; Win64; x64) AppleWebKit/537.36 (KHTML, like Gecko) Chrome/119.0.0.0 Safari/537.36" etag="jJoadYNM8R2HdXC0VCOt" version="22.1.1" type="device">
  <diagram name="Page-1" id="2YBvvXClWsGukQMizWep">
    <mxGraphModel dx="1302" dy="642" grid="1" gridSize="10" guides="1" tooltips="1" connect="1" arrows="1" fold="1" page="1" pageScale="1" pageWidth="850" pageHeight="1100" math="0" shadow="0">
      <root>
        <mxCell id="0" />
        <mxCell id="1" parent="0" />
        <mxCell id="aM9ryv3xv72pqoxQDRHE-5" value="UI" style="shape=umlLifeline;perimeter=lifelinePerimeter;whiteSpace=wrap;html=1;container=0;dropTarget=0;collapsible=0;recursiveResize=0;outlineConnect=0;portConstraint=eastwest;newEdgeStyle={&quot;edgeStyle&quot;:&quot;elbowEdgeStyle&quot;,&quot;elbow&quot;:&quot;vertical&quot;,&quot;curved&quot;:0,&quot;rounded&quot;:0};" parent="1" vertex="1">
          <mxGeometry x="231" y="113" width="100" height="730" as="geometry" />
        </mxCell>
        <mxCell id="aM9ryv3xv72pqoxQDRHE-6" value="" style="html=1;points=[];perimeter=orthogonalPerimeter;outlineConnect=0;targetShapes=umlLifeline;portConstraint=eastwest;newEdgeStyle={&quot;edgeStyle&quot;:&quot;elbowEdgeStyle&quot;,&quot;elbow&quot;:&quot;vertical&quot;,&quot;curved&quot;:0,&quot;rounded&quot;:0};" parent="aM9ryv3xv72pqoxQDRHE-5" vertex="1">
          <mxGeometry x="44" y="70" width="10" height="640" as="geometry" />
        </mxCell>
        <mxCell id="aM9ryv3xv72pqoxQDRHE-7" value="Transaction Request" style="html=1;verticalAlign=bottom;endArrow=block;edgeStyle=elbowEdgeStyle;elbow=vertical;curved=0;rounded=0;" parent="1" source="vLyNGtAwpZRzAdvcBB-H-13" target="aM9ryv3xv72pqoxQDRHE-6" edge="1">
          <mxGeometry relative="1" as="geometry">
            <mxPoint x="135" y="203.00000000000006" as="sourcePoint" />
            <Array as="points">
              <mxPoint x="220" y="203" />
            </Array>
          </mxGeometry>
        </mxCell>
        <mxCell id="vLyNGtAwpZRzAdvcBB-H-6" value="Payment" style="shape=umlLifeline;perimeter=lifelinePerimeter;whiteSpace=wrap;html=1;container=0;dropTarget=0;collapsible=0;recursiveResize=0;outlineConnect=0;portConstraint=eastwest;newEdgeStyle={&quot;edgeStyle&quot;:&quot;elbowEdgeStyle&quot;,&quot;elbow&quot;:&quot;vertical&quot;,&quot;curved&quot;:0,&quot;rounded&quot;:0};" parent="1" vertex="1">
          <mxGeometry x="568" y="113" width="100" height="730" as="geometry" />
        </mxCell>
        <mxCell id="vLyNGtAwpZRzAdvcBB-H-7" value="" style="html=1;points=[];perimeter=orthogonalPerimeter;outlineConnect=0;targetShapes=umlLifeline;portConstraint=eastwest;newEdgeStyle={&quot;edgeStyle&quot;:&quot;elbowEdgeStyle&quot;,&quot;elbow&quot;:&quot;vertical&quot;,&quot;curved&quot;:0,&quot;rounded&quot;:0};" parent="vLyNGtAwpZRzAdvcBB-H-6" vertex="1">
          <mxGeometry x="45" y="240" width="10" height="470" as="geometry" />
        </mxCell>
        <mxCell id="vLyNGtAwpZRzAdvcBB-H-8" value="Account" style="shape=umlLifeline;perimeter=lifelinePerimeter;whiteSpace=wrap;html=1;container=0;dropTarget=0;collapsible=0;recursiveResize=0;outlineConnect=0;portConstraint=eastwest;newEdgeStyle={&quot;edgeStyle&quot;:&quot;elbowEdgeStyle&quot;,&quot;elbow&quot;:&quot;vertical&quot;,&quot;curved&quot;:0,&quot;rounded&quot;:0};" parent="1" vertex="1">
          <mxGeometry x="717" y="113" width="100" height="730" as="geometry" />
        </mxCell>
        <mxCell id="vLyNGtAwpZRzAdvcBB-H-9" value="" style="html=1;points=[];perimeter=orthogonalPerimeter;outlineConnect=0;targetShapes=umlLifeline;portConstraint=eastwest;newEdgeStyle={&quot;edgeStyle&quot;:&quot;elbowEdgeStyle&quot;,&quot;elbow&quot;:&quot;vertical&quot;,&quot;curved&quot;:0,&quot;rounded&quot;:0};" parent="vLyNGtAwpZRzAdvcBB-H-8" vertex="1">
          <mxGeometry x="46" y="420" width="10" height="70" as="geometry" />
        </mxCell>
        <mxCell id="vLyNGtAwpZRzAdvcBB-H-10" value="" style="shape=umlActor;verticalLabelPosition=bottom;verticalAlign=top;html=1;outlineConnect=0;" parent="1" vertex="1">
          <mxGeometry x="100" y="103" width="30" height="60" as="geometry" />
        </mxCell>
        <mxCell id="vLyNGtAwpZRzAdvcBB-H-11" value="" style="endArrow=none;dashed=1;html=1;rounded=0;" parent="1" source="vLyNGtAwpZRzAdvcBB-H-13" target="vLyNGtAwpZRzAdvcBB-H-10" edge="1">
          <mxGeometry width="50" height="50" relative="1" as="geometry">
            <mxPoint x="115" y="393.44447157118054" as="sourcePoint" />
            <mxPoint x="110" y="203" as="targetPoint" />
          </mxGeometry>
        </mxCell>
        <mxCell id="vLyNGtAwpZRzAdvcBB-H-14" value="" style="endArrow=none;dashed=1;html=1;rounded=0;" parent="1" target="vLyNGtAwpZRzAdvcBB-H-13" edge="1">
          <mxGeometry width="50" height="50" relative="1" as="geometry">
            <mxPoint x="115" y="843" as="sourcePoint" />
            <mxPoint x="115" y="183" as="targetPoint" />
          </mxGeometry>
        </mxCell>
        <mxCell id="vLyNGtAwpZRzAdvcBB-H-13" value="" style="html=1;points=[];perimeter=orthogonalPerimeter;outlineConnect=0;targetShapes=umlLifeline;portConstraint=eastwest;newEdgeStyle={&quot;edgeStyle&quot;:&quot;elbowEdgeStyle&quot;,&quot;elbow&quot;:&quot;vertical&quot;,&quot;curved&quot;:0,&quot;rounded&quot;:0};" parent="1" vertex="1">
          <mxGeometry x="110" y="193" width="10" height="630" as="geometry" />
        </mxCell>
        <mxCell id="vLyNGtAwpZRzAdvcBB-H-17" value="sendMoneyMenu()" style="html=1;verticalAlign=bottom;endArrow=open;dashed=1;endSize=8;curved=0;rounded=0;" parent="1" edge="1">
          <mxGeometry relative="1" as="geometry">
            <mxPoint x="275" y="253" as="sourcePoint" />
            <mxPoint x="120.00000000000023" y="253" as="targetPoint" />
            <Array as="points">
              <mxPoint x="200" y="253" />
            </Array>
          </mxGeometry>
        </mxCell>
        <mxCell id="vLyNGtAwpZRzAdvcBB-H-18" value="chooseTransactionType()" style="html=1;verticalAlign=bottom;endArrow=block;curved=0;rounded=0;" parent="1" edge="1">
          <mxGeometry x="0.0013" width="80" relative="1" as="geometry">
            <mxPoint x="120" y="293" as="sourcePoint" />
            <mxPoint x="275" y="293" as="targetPoint" />
            <Array as="points" />
            <mxPoint as="offset" />
          </mxGeometry>
        </mxCell>
        <mxCell id="vLyNGtAwpZRzAdvcBB-H-23" value="&lt;font style=&quot;font-size: 9px;&quot;&gt;executeMoneyTransaction(int option)&lt;/font&gt;" style="html=1;verticalAlign=bottom;endArrow=block;curved=0;rounded=0;" parent="1" edge="1">
          <mxGeometry x="-0.0057" width="80" relative="1" as="geometry">
            <mxPoint x="454" y="402.7599999999999" as="sourcePoint" />
            <mxPoint x="613" y="402.76" as="targetPoint" />
            <Array as="points">
              <mxPoint x="534" y="402.76" />
            </Array>
            <mxPoint as="offset" />
          </mxGeometry>
        </mxCell>
        <mxCell id="vLyNGtAwpZRzAdvcBB-H-24" value="getBalance()" style="html=1;verticalAlign=bottom;endArrow=block;curved=0;rounded=0;" parent="1" edge="1">
          <mxGeometry width="80" relative="1" as="geometry">
            <mxPoint x="623" y="553.0000000000001" as="sourcePoint" />
            <mxPoint x="763" y="553.0000000000001" as="targetPoint" />
            <Array as="points">
              <mxPoint x="693" y="553" />
            </Array>
            <mxPoint as="offset" />
          </mxGeometry>
        </mxCell>
        <mxCell id="vLyNGtAwpZRzAdvcBB-H-25" value="Return&lt;br style=&quot;border-color: var(--border-color);&quot;&gt;TRANSACTION_FAILED" style="html=1;verticalAlign=bottom;endArrow=open;dashed=1;endSize=8;curved=0;rounded=0;" parent="1" edge="1">
          <mxGeometry relative="1" as="geometry">
            <mxPoint x="614" y="740" as="sourcePoint" />
            <mxPoint x="453" y="740" as="targetPoint" />
            <Array as="points">
              <mxPoint x="539" y="740" />
            </Array>
          </mxGeometry>
        </mxCell>
        <mxCell id="vLyNGtAwpZRzAdvcBB-H-26" value="Display the error in the&amp;nbsp;&lt;br&gt;transaction form" style="html=1;verticalAlign=bottom;endArrow=open;dashed=1;endSize=8;curved=0;rounded=0;" parent="1" edge="1" source="A2Jv6zEELa93pfOwzlvb-3">
          <mxGeometry x="0.0015" relative="1" as="geometry">
            <mxPoint x="275" y="507" as="sourcePoint" />
            <mxPoint x="120.00000000000023" y="507" as="targetPoint" />
            <Array as="points" />
            <mxPoint as="offset" />
          </mxGeometry>
        </mxCell>
        <mxCell id="vLyNGtAwpZRzAdvcBB-H-27" value="Display transaction form" style="html=1;verticalAlign=bottom;endArrow=open;dashed=1;endSize=8;curved=0;rounded=0;" parent="1" edge="1" source="A2Jv6zEELa93pfOwzlvb-3">
          <mxGeometry relative="1" as="geometry">
            <mxPoint x="275" y="345" as="sourcePoint" />
            <mxPoint x="120" y="345" as="targetPoint" />
            <Array as="points">
              <mxPoint x="200" y="345" />
            </Array>
          </mxGeometry>
        </mxCell>
        <mxCell id="vLyNGtAwpZRzAdvcBB-H-28" value="Fill the form then submit" style="html=1;verticalAlign=bottom;endArrow=block;curved=0;rounded=0;" parent="1" edge="1" target="A2Jv6zEELa93pfOwzlvb-3">
          <mxGeometry width="80" relative="1" as="geometry">
            <mxPoint x="120" y="379" as="sourcePoint" />
            <mxPoint x="275" y="379" as="targetPoint" />
            <Array as="points">
              <mxPoint x="200" y="379" />
            </Array>
          </mxGeometry>
        </mxCell>
        <mxCell id="vLyNGtAwpZRzAdvcBB-H-30" value="&lt;p style=&quot;line-height: 100%; font-size: 10px;&quot;&gt;If the receiver account doesn&#39;t exists&lt;br&gt;&lt;/p&gt;" style="shape=umlFrame;whiteSpace=wrap;html=1;pointerEvents=0;width=80;height=60;" parent="1" vertex="1">
          <mxGeometry x="11" y="428" width="832" height="100" as="geometry" />
        </mxCell>
        <mxCell id="vLyNGtAwpZRzAdvcBB-H-32" value="&lt;p style=&quot;line-height: 80%;&quot;&gt;If the&amp;nbsp;&lt;font style=&quot;border-color: var(--border-color); font-size: 10px;&quot;&gt;receiver account has a sufficient balance&lt;/font&gt;&lt;br&gt;&lt;/p&gt;" style="shape=umlFrame;whiteSpace=wrap;html=1;pointerEvents=0;width=70;height=50;" parent="1" vertex="1">
          <mxGeometry x="11" y="610" width="832" height="79" as="geometry" />
        </mxCell>
        <mxCell id="vLyNGtAwpZRzAdvcBB-H-34" value="balance" style="html=1;verticalAlign=bottom;endArrow=open;dashed=1;endSize=8;curved=0;rounded=0;" parent="1" edge="1">
          <mxGeometry relative="1" as="geometry">
            <mxPoint x="763" y="590" as="sourcePoint" />
            <mxPoint x="623" y="590" as="targetPoint" />
            <Array as="points">
              <mxPoint x="698" y="590" />
            </Array>
            <mxPoint as="offset" />
          </mxGeometry>
        </mxCell>
        <mxCell id="vLyNGtAwpZRzAdvcBB-H-35" value="TRANSACTION_SUCCESS" style="html=1;verticalAlign=bottom;endArrow=open;dashed=1;endSize=8;curved=0;rounded=0;" parent="1" edge="1" target="A2Jv6zEELa93pfOwzlvb-2">
          <mxGeometry relative="1" as="geometry">
            <mxPoint x="613" y="643.71" as="sourcePoint" />
            <mxPoint x="463" y="643.71" as="targetPoint" />
            <Array as="points">
              <mxPoint x="538" y="643.71" />
            </Array>
          </mxGeometry>
        </mxCell>
        <mxCell id="vLyNGtAwpZRzAdvcBB-H-36" value="Display a massage with&lt;br&gt;&amp;nbsp;the payment" style="html=1;verticalAlign=bottom;endArrow=open;dashed=1;endSize=8;curved=0;rounded=0;" parent="1" edge="1" source="A2Jv6zEELa93pfOwzlvb-2">
          <mxGeometry relative="1" as="geometry">
            <mxPoint x="273" y="766" as="sourcePoint" />
            <mxPoint x="118" y="766" as="targetPoint" />
            <Array as="points">
              <mxPoint x="198" y="766" />
            </Array>
          </mxGeometry>
        </mxCell>
        <mxCell id="vLyNGtAwpZRzAdvcBB-H-38" value="&lt;p style=&quot;line-height: 80%;&quot;&gt;&lt;font style=&quot;font-size: 12px;&quot;&gt;else&lt;/font&gt;&lt;/p&gt;" style="shape=umlFrame;whiteSpace=wrap;html=1;pointerEvents=0;" parent="1" vertex="1">
          <mxGeometry x="11" y="689" width="832" height="100" as="geometry" />
        </mxCell>
        <mxCell id="vLyNGtAwpZRzAdvcBB-H-39" value="Return &lt;br&gt;TRANSACTION_FAILED" style="html=1;verticalAlign=bottom;endArrow=open;dashed=1;endSize=8;curved=0;rounded=0;entryX=0.534;entryY=0.486;entryDx=0;entryDy=0;entryPerimeter=0;" parent="1" edge="1" target="A2Jv6zEELa93pfOwzlvb-2">
          <mxGeometry x="0.0022" relative="1" as="geometry">
            <mxPoint x="613" y="468.0000000000001" as="sourcePoint" />
            <mxPoint x="463" y="468.0000000000001" as="targetPoint" />
            <Array as="points">
              <mxPoint x="533" y="468" />
            </Array>
            <mxPoint as="offset" />
          </mxGeometry>
        </mxCell>
        <mxCell id="vLyNGtAwpZRzAdvcBB-H-40" value="Display a massage with&lt;br&gt;&amp;nbsp;the payment" style="html=1;verticalAlign=bottom;endArrow=open;dashed=1;endSize=8;curved=0;rounded=0;" parent="1" edge="1" source="A2Jv6zEELa93pfOwzlvb-3">
          <mxGeometry relative="1" as="geometry">
            <mxPoint x="275" y="667" as="sourcePoint" />
            <mxPoint x="120" y="667" as="targetPoint" />
            <Array as="points">
              <mxPoint x="200" y="667" />
            </Array>
          </mxGeometry>
        </mxCell>
        <mxCell id="A2Jv6zEELa93pfOwzlvb-1" value="operation" style="html=1;verticalAlign=bottom;endArrow=block;curved=0;rounded=0;" edge="1" parent="1" target="A2Jv6zEELa93pfOwzlvb-3">
          <mxGeometry width="80" relative="1" as="geometry">
            <mxPoint x="284" y="320" as="sourcePoint" />
            <mxPoint x="439" y="320" as="targetPoint" />
            <Array as="points" />
          </mxGeometry>
        </mxCell>
        <mxCell id="A2Jv6zEELa93pfOwzlvb-2" value="Instapay" style="shape=umlLifeline;perimeter=lifelinePerimeter;whiteSpace=wrap;html=1;container=0;dropTarget=0;collapsible=0;recursiveResize=0;outlineConnect=0;portConstraint=eastwest;newEdgeStyle={&quot;edgeStyle&quot;:&quot;elbowEdgeStyle&quot;,&quot;elbow&quot;:&quot;vertical&quot;,&quot;curved&quot;:0,&quot;rounded&quot;:0};" vertex="1" parent="1">
          <mxGeometry x="399" y="113" width="100" height="730" as="geometry" />
        </mxCell>
        <mxCell id="A2Jv6zEELa93pfOwzlvb-3" value="" style="html=1;points=[];perimeter=orthogonalPerimeter;outlineConnect=0;targetShapes=umlLifeline;portConstraint=eastwest;newEdgeStyle={&quot;edgeStyle&quot;:&quot;elbowEdgeStyle&quot;,&quot;elbow&quot;:&quot;vertical&quot;,&quot;curved&quot;:0,&quot;rounded&quot;:0};" vertex="1" parent="A2Jv6zEELa93pfOwzlvb-2">
          <mxGeometry x="44" y="70" width="10" height="640" as="geometry" />
        </mxCell>
        <mxCell id="A2Jv6zEELa93pfOwzlvb-11" value="dispatch" style="html=1;verticalAlign=bottom;startArrow=circle;startFill=1;endArrow=open;startSize=6;endSize=8;curved=0;rounded=0;" edge="1" parent="1">
          <mxGeometry width="80" relative="1" as="geometry">
            <mxPoint x="30" y="140" as="sourcePoint" />
            <mxPoint x="110" y="140" as="targetPoint" />
          </mxGeometry>
        </mxCell>
      </root>
    </mxGraphModel>
  </diagram>
</mxfile>
